# xmcd
#
# Track frame offsets: 
#        150
#        15664
#        31282
#        43646
#        59384
#        73697
#        87478
#        102977
#        118198
#        133591
#        148639
#        162075
#        177123
#        192336
#        206814
#        220340
#        249196
#        261913
#        275319
#        288575
#        301223
#
# Disc length: 4225 seconds
#
# Revision: 0
# Processed by: cddbd v1.5.1PL2 Copyright (c) Steve Scherf et al.
# Submitted via: ExactAudioCopy v0.95b3
#
DISCID=3b107f15
DTITLE=Bessie Smith - The Empress of the Blues: 1923-1933
DYEAR=1900
DGENRE=Blues
TTITLE0=Down Hearted Blues
TTITLE1=Tain't Nobody's Business If I Do
TTITLE2=Graveyard Dream Blues
TTITLE3=You've Been a Good Ole Wagon
TTITLE4=Cake Walkin' Babies from Home
TTITLE5=Yellow Dog Blues
TTITLE6=Careless Love Blues
TTITLE7=I Ain't Goin' to Play Second Fiddle
TTITLE8=At the Christmas Ball
TTITLE9=Backwater Blues
TTITLE10=After You've Gone
TTITLE11=There'll Be a Hot Time in the Old Time Tonight
TTITLE12=Send Me to the 'Lectric Chair
TTITLE13=Mean Old Bed Bug Blues
TTITLE14=Good Man Is Hard to Find
TTITLE15=Empty Bed Blues, Pts. 1 and  2
TTITLE16=I'm Wild About That Thing
TTITLE17=Nobody Knows You When You're Down and Out
TTITLE18=On Revival Day
TTITLE19=Need a Little Sugar in My Bowl
TTITLE20=Gimme a Pigfoot
EXTD=
EXTT0=
EXTT1=
EXTT2=
EXTT3=
EXTT4=
EXTT5=
EXTT6=
EXTT7=
EXTT8=
EXTT9=
EXTT10=
EXTT11=
EXTT12=
EXTT13=
EXTT14=
EXTT15=
EXTT16=
EXTT17=
EXTT18=
EXTT19=
EXTT20=
PLAYORDER=
